<svg width="1600" height="1600" viewBox="0 0 1600 1600" fill="none" xmlns="http://www.w3.org/2000/svg">
<g clip-path="url(#clip0_20_2)">
<rect width="1600" height="1600" fill="white"/>
<g clip-path="url(#clip1_20_2)">
<rect x="100" y="100" width="100" height="100" fill="#F3CCA5"/>
</g>
<g clip-path="url(#clip2_20_2)">
<rect x="100" y="900" width="100" height="100" fill="#704C0F"/>
</g>
<g clip-path="url(#clip3_20_2)">
<rect x="100" y="500" width="100" height="100" fill="#F3CCA5"/>
</g>
<g clip-path="url(#clip4_20_2)">
<rect x="100" y="1300" width="100" height="100" fill="#F3CCA5"/>
</g>
<g clip-path="url(#clip5_20_2)">
<rect x="100" y="300" width="100" height="100" fill="#F3CCA5"/>
</g>
<g clip-path="url(#clip6_20_2)">
<rect x="100" y="1100" width="100" height="100" fill="#F3CCA5"/>
</g>
<g clip-path="url(#clip7_20_2)">
<rect x="100" y="700" width="100" height="100" fill="#F3CCA5"/>
</g>
<g clip-path="url(#clip8_20_2)">
<rect x="100" y="1500" width="100" height="100" fill="#F3CCA5"/>
</g>
<g clip-path="url(#clip9_20_2)">
<rect x="100" y="200" width="100" height="100" fill="#F3CCA5"/>
</g>
<g clip-path="url(#clip10_20_2)">
<rect x="100" y="1000" width="100" height="100" fill="#F3CCA5"/>
</g>
<g clip-path="url(#clip11_20_2)">
<rect x="100" y="600" width="100" height="100" fill="#F3CCA5"/>
</g>
<g clip-path="url(#clip12_20_2)">
<rect x="100" y="1400" width="100" height="100" fill="#F3CCA5"/>
</g>
<g clip-path="url(#clip13_20_2)">
<rect x="100" y="400" width="100" height="100" fill="#F3CCA5"/>
</g>
<g clip-path="url(#clip14_20_2)">
<rect x="100" y="1200" width="100" height="100" fill="#F3CCA5"/>
</g>
<g clip-path="url(#clip15_20_2)">
<rect x="100" y="800" width="100" height="100" fill="#F3CCA5"/>
</g>
<g clip-path="url(#clip16_20_2)">
<rect x="900" y="100" width="100" height="100" fill="#F3CCA5"/>
</g>
<g clip-path="url(#clip17_20_2)">
<rect x="900" y="900" width="100" height="100" fill="#343434"/>
</g>
<g clip-path="url(#clip18_20_2)">
<rect x="900" y="500" width="100" height="100" fill="#343434"/>
</g>
<g clip-path="url(#clip19_20_2)">
<rect x="900" y="1300" width="100" height="100" fill="#343434"/>
</g>
<g clip-path="url(#clip20_20_2)">
<rect x="900" y="300" width="100" height="100" fill="#704C0F"/>
</g>
<g clip-path="url(#clip21_20_2)">
<rect x="900" y="1100" width="100" height="100" fill="#343434"/>
</g>
<g clip-path="url(#clip22_20_2)">
<rect x="900" y="700" width="100" height="100" fill="#343434"/>
</g>
<g clip-path="url(#clip23_20_2)">
<rect x="900" y="1500" width="100" height="100" fill="#F3CCA5"/>
</g>
<g clip-path="url(#clip24_20_2)">
<rect x="900" y="200" width="100" height="100" fill="black"/>
</g>
<g clip-path="url(#clip25_20_2)">
<rect x="900" y="1000" width="100" height="100" fill="#343434"/>
</g>
<g clip-path="url(#clip26_20_2)">
<rect x="900" y="600" width="100" height="100" fill="black"/>
</g>
<g clip-path="url(#clip27_20_2)">
<rect x="900" y="1400" width="100" height="100" fill="black"/>
</g>
<g clip-path="url(#clip28_20_2)">
<rect x="900" y="400" width="100" height="100" fill="#343434"/>
</g>
<g clip-path="url(#clip29_20_2)">
<rect x="900" y="1200" width="100" height="100" fill="#343434"/>
</g>
<g clip-path="url(#clip30_20_2)">
<rect x="900" y="800" width="100" height="100" fill="#343434"/>
</g>
<g clip-path="url(#clip31_20_2)">
<rect x="500" y="100" width="100" height="100" fill="#F3CCA5"/>
</g>
<g clip-path="url(#clip32_20_2)">
<rect x="500" y="900" width="100" height="100" fill="black"/>
</g>
<g clip-path="url(#clip33_20_2)">
<rect x="500" y="500" width="100" height="100" fill="#343434"/>
</g>
<g clip-path="url(#clip34_20_2)">
<rect x="500" y="1300" width="100" height="100" fill="black"/>
</g>
<g clip-path="url(#clip35_20_2)">
<rect x="500" y="300" width="100" height="100" fill="#704C0F"/>
</g>
<g clip-path="url(#clip36_20_2)">
<rect x="500" y="1100" width="100" height="100" fill="black"/>
</g>
<g clip-path="url(#clip37_20_2)">
<rect x="500" y="700" width="100" height="100" fill="#343434"/>
</g>
<g clip-path="url(#clip38_20_2)">
<rect x="500" y="1500" width="100" height="100" fill="#F3CCA5"/>
</g>
<g clip-path="url(#clip39_20_2)">
<rect x="500" y="200" width="100" height="100" fill="black"/>
</g>
<g clip-path="url(#clip40_20_2)">
<rect x="500" y="1000" width="100" height="100" fill="black"/>
</g>
<g clip-path="url(#clip41_20_2)">
<rect x="500" y="600" width="100" height="100" fill="#343434"/>
</g>
<g clip-path="url(#clip42_20_2)">
<rect x="500" y="1400" width="100" height="100" fill="#F3CCA5"/>
</g>
<g clip-path="url(#clip43_20_2)">
<rect x="500" y="400" width="100" height="100" fill="#343434"/>
</g>
<g clip-path="url(#clip44_20_2)">
<rect x="500" y="1200" width="100" height="100" fill="black"/>
</g>
<g clip-path="url(#clip45_20_2)">
<rect x="500" y="800" width="100" height="100" fill="black"/>
</g>
<g clip-path="url(#clip46_20_2)">
<rect x="1300" y="100" width="100" height="100" fill="#F3CCA5"/>
</g>
<g clip-path="url(#clip47_20_2)">
<rect x="1300" y="900" width="100" height="100" fill="#F3CCA5"/>
</g>
<g clip-path="url(#clip48_20_2)">
<rect x="1300" y="500" width="100" height="100" fill="#F3CCA5"/>
</g>
<g clip-path="url(#clip49_20_2)">
<rect x="1300" y="1300" width="100" height="100" fill="black"/>
</g>
<g clip-path="url(#clip50_20_2)">
<rect x="1300" y="300" width="100" height="100" fill="#F3CCA5"/>
</g>
<g clip-path="url(#clip51_20_2)">
<rect x="1300" y="1100" width="100" height="100" fill="black"/>
</g>
<g clip-path="url(#clip52_20_2)">
<rect x="1300" y="700" width="100" height="100" fill="#F3CCA5"/>
</g>
<g clip-path="url(#clip53_20_2)">
<rect x="1300" y="1500" width="100" height="100" fill="#F3CCA5"/>
</g>
<g clip-path="url(#clip54_20_2)">
<rect x="1300" y="200" width="100" height="100" fill="#F3CCA5"/>
</g>
<g clip-path="url(#clip55_20_2)">
<rect x="1300" y="1000" width="100" height="100" fill="#F3CCA5"/>
</g>
<g clip-path="url(#clip56_20_2)">
<rect x="1300" y="600" width="100" height="100" fill="#F3CCA5"/>
</g>
<g clip-path="url(#clip57_20_2)">
<rect x="1300" y="1400" width="100" height="100" fill="#F3CCA5"/>
</g>
<g clip-path="url(#clip58_20_2)">
<rect x="1300" y="400" width="100" height="100" fill="#F3CCA5"/>
</g>
<g clip-path="url(#clip59_20_2)">
<rect x="1300" y="1200" width="100" height="100" fill="black"/>
</g>
<g clip-path="url(#clip60_20_2)">
<rect width="100" height="100" transform="translate(1300 800)" fill="#F3CCA5"/>
<rect x="1300" y="800" width="100" height="100" fill="#F3CCA5"/>
</g>
<g clip-path="url(#clip61_20_2)">
<rect x="300" y="100" width="100" height="100" fill="#F3CCA5"/>
</g>
<g clip-path="url(#clip62_20_2)">
<rect x="300" y="900" width="100" height="100" fill="#F3CCA5"/>
</g>
<g clip-path="url(#clip63_20_2)">
<rect x="300" y="500" width="100" height="100" fill="#F3CCA5"/>
</g>
<g clip-path="url(#clip64_20_2)">
<rect x="300" y="1300" width="100" height="100" fill="#F3CCA5"/>
</g>
<g clip-path="url(#clip65_20_2)">
<rect x="300" y="300" width="100" height="100" fill="#704C0F"/>
</g>
<g clip-path="url(#clip66_20_2)">
<rect x="300" y="1100" width="100" height="100" fill="#F3CCA5"/>
</g>
<g clip-path="url(#clip67_20_2)">
<rect x="300" y="700" width="100" height="100" fill="#F3CCA5"/>
</g>
<g clip-path="url(#clip68_20_2)">
<rect x="300" y="1500" width="100" height="100" fill="#F3CCA5"/>
</g>
<g clip-path="url(#clip69_20_2)">
<rect x="300" y="200" width="100" height="100" fill="#704C0F"/>
</g>
<g clip-path="url(#clip70_20_2)">
<rect x="300" y="1000" width="100" height="100" fill="black"/>
</g>
<g clip-path="url(#clip71_20_2)">
<rect x="300" y="600" width="100" height="100" fill="#F3CCA5"/>
</g>
<g clip-path="url(#clip72_20_2)">
<rect x="300" y="1400" width="100" height="100" fill="#F3CCA5"/>
</g>
<g clip-path="url(#clip73_20_2)">
<rect x="300" y="400" width="100" height="100" fill="#F3CCA5"/>
</g>
<g clip-path="url(#clip74_20_2)">
<rect x="300" y="1200" width="100" height="100" fill="#F3CCA5"/>
</g>
<g clip-path="url(#clip75_20_2)">
<rect x="300" y="800" width="100" height="100" fill="#F3CCA5"/>
</g>
<g clip-path="url(#clip76_20_2)">
<rect x="1100" y="100" width="100" height="100" fill="#F3CCA5"/>
</g>
<g clip-path="url(#clip77_20_2)">
<rect x="1100" y="900" width="100" height="100" fill="black"/>
</g>
<g clip-path="url(#clip78_20_2)">
<rect x="1100" y="500" width="100" height="100" fill="black"/>
</g>
<g clip-path="url(#clip79_20_2)">
<rect x="1100" y="1300" width="100" height="100" fill="black"/>
</g>
<g clip-path="url(#clip80_20_2)">
<rect x="1100" y="300" width="100" height="100" fill="#704C0F"/>
</g>
<g clip-path="url(#clip81_20_2)">
<rect x="1100" y="1100" width="100" height="100" fill="#F3CCA5"/>
</g>
<g clip-path="url(#clip82_20_2)">
<rect x="1100" y="700" width="100" height="100" fill="black"/>
</g>
<g clip-path="url(#clip83_20_2)">
<rect x="1100" y="1500" width="100" height="100" fill="#F3CCA5"/>
</g>
<g clip-path="url(#clip84_20_2)">
<rect x="1100" y="200" width="100" height="100" fill="#704C0F"/>
</g>
<g clip-path="url(#clip85_20_2)">
<rect x="1100" y="1000" width="100" height="100" fill="black"/>
</g>
<g clip-path="url(#clip86_20_2)">
<rect x="1100" y="600" width="100" height="100" fill="black"/>
</g>
<g clip-path="url(#clip87_20_2)">
<rect x="1100" y="1400" width="100" height="100" fill="#F3CCA5"/>
</g>
<g clip-path="url(#clip88_20_2)">
<rect x="1100" y="400" width="100" height="100" fill="#F3CCA5"/>
</g>
<g clip-path="url(#clip89_20_2)">
<rect x="1100" y="1200" width="100" height="100" fill="#F3CCA5"/>
</g>
<g clip-path="url(#clip90_20_2)">
<rect x="1100" y="800" width="100" height="100" fill="#F3CCA5"/>
</g>
<g clip-path="url(#clip91_20_2)">
<rect x="700" y="100" width="100" height="100" fill="#704C0F"/>
</g>
<g clip-path="url(#clip92_20_2)">
<rect x="700" y="900" width="100" height="100" fill="#343434"/>
</g>
<g clip-path="url(#clip93_20_2)">
<rect x="700" y="500" width="100" height="100" fill="#343434"/>
</g>
<g clip-path="url(#clip94_20_2)">
<rect x="700" y="1300" width="100" height="100" fill="black"/>
</g>
<g clip-path="url(#clip95_20_2)">
<rect x="700" y="300" width="100" height="100" fill="#704C0F"/>
</g>
<g clip-path="url(#clip96_20_2)">
<rect x="700" y="1100" width="100" height="100" fill="#343434"/>
</g>
<g clip-path="url(#clip97_20_2)">
<rect x="700" y="700" width="100" height="100" fill="#343434"/>
</g>
<g clip-path="url(#clip98_20_2)">
<rect x="700" y="1500" width="100" height="100" fill="#F3CCA5"/>
</g>
<g clip-path="url(#clip99_20_2)">
<rect x="700" y="200" width="100" height="100" fill="#FFF700"/>
</g>
<g clip-path="url(#clip100_20_2)">
<rect x="700" y="1000" width="100" height="100" fill="#343434"/>
</g>
<g clip-path="url(#clip101_20_2)">
<rect x="700" y="600" width="100" height="100" fill="#343434"/>
</g>
<g clip-path="url(#clip102_20_2)">
<rect x="700" y="1400" width="100" height="100" fill="#F3CCA5"/>
</g>
<g clip-path="url(#clip103_20_2)">
<rect x="700" y="400" width="100" height="100" fill="black"/>
</g>
<g clip-path="url(#clip104_20_2)">
<rect x="700" y="1200" width="100" height="100" fill="#343434"/>
</g>
<g clip-path="url(#clip105_20_2)">
<rect x="700" y="800" width="100" height="100" fill="#343434"/>
</g>
<g clip-path="url(#clip106_20_2)">
<rect x="1500" y="100" width="100" height="100" fill="#F3CCA5"/>
</g>
<g clip-path="url(#clip107_20_2)">
<rect x="1500" y="900" width="100" height="100" fill="#F3CCA5"/>
</g>
<g clip-path="url(#clip108_20_2)">
<rect x="1500" y="500" width="100" height="100" fill="#F3CCA5"/>
</g>
<g clip-path="url(#clip109_20_2)">
<rect x="1500" y="1300" width="100" height="100" fill="#F3CCA5"/>
</g>
<g clip-path="url(#clip110_20_2)">
<rect x="1500" y="300" width="100" height="100" fill="#F3CCA5"/>
</g>
<g clip-path="url(#clip111_20_2)">
<rect x="1500" y="1100" width="100" height="100" fill="#F3CCA5"/>
</g>
<g clip-path="url(#clip112_20_2)">
<rect x="1500" y="700" width="100" height="100" fill="#F3CCA5"/>
</g>
<g clip-path="url(#clip113_20_2)">
<rect x="1500" y="1500" width="100" height="100" fill="#F3CCA5"/>
</g>
<g clip-path="url(#clip114_20_2)">
<rect x="1500" y="200" width="100" height="100" fill="#F3CCA5"/>
</g>
<g clip-path="url(#clip115_20_2)">
<rect x="1500" y="1000" width="100" height="100" fill="#F3CCA5"/>
</g>
<g clip-path="url(#clip116_20_2)">
<rect x="1500" y="600" width="100" height="100" fill="#F3CCA5"/>
</g>
<g clip-path="url(#clip117_20_2)">
<rect x="1500" y="1400" width="100" height="100" fill="#F3CCA5"/>
</g>
<g clip-path="url(#clip118_20_2)">
<rect x="1500" y="400" width="100" height="100" fill="#F3CCA5"/>
</g>
<g clip-path="url(#clip119_20_2)">
<rect x="1500" y="1200" width="100" height="100" fill="#F3CCA5"/>
</g>
<g clip-path="url(#clip120_20_2)">
<rect x="1500" y="800" width="100" height="100" fill="#F3CCA5"/>
</g>
<rect x="200" y="100" width="100" height="100" fill="#F3CCA5"/>
<rect x="200" y="900" width="100" height="100" fill="#704C0F"/>
<rect x="200" y="500" width="100" height="100" fill="#F3CCA5"/>
<rect x="200" y="1300" width="100" height="100" fill="#F3CCA5"/>
<rect x="200" y="300" width="100" height="100" fill="#F3CCA5"/>
<rect x="200" y="1100" width="100" height="100" fill="#F3CCA5"/>
<rect x="200" y="700" width="100" height="100" fill="#F3CCA5"/>
<rect x="200" y="1500" width="100" height="100" fill="#F3CCA5"/>
<rect x="200" y="200" width="100" height="100" fill="#F3CCA5"/>
<rect x="200" y="1000" width="100" height="100" fill="#704C0F"/>
<rect x="200" y="600" width="100" height="100" fill="#F3CCA5"/>
<rect x="200" y="1400" width="100" height="100" fill="#F3CCA5"/>
<rect x="200" y="400" width="100" height="100" fill="#F3CCA5"/>
<rect x="200" y="1200" width="100" height="100" fill="#F3CCA5"/>
<rect x="200" y="800" width="100" height="100" fill="#F3CCA5"/>
<rect x="1000" y="100" width="100" height="100" fill="#F3CCA5"/>
<rect x="1000" y="900" width="100" height="100" fill="black"/>
<rect x="1000" y="500" width="100" height="100" fill="#343434"/>
<rect x="1000" y="1300" width="100" height="100" fill="black"/>
<rect x="1000" y="300" width="100" height="100" fill="#704C0F"/>
<rect x="1000" y="1100" width="100" height="100" fill="black"/>
<rect x="1000" y="700" width="100" height="100" fill="#343434"/>
<rect x="1000" y="1500" width="100" height="100" fill="#F3CCA5"/>
<rect x="1000" y="200" width="100" height="100" fill="#F3CCA5"/>
<rect x="1000" y="1000" width="100" height="100" fill="black"/>
<rect x="1000" y="600" width="100" height="100" fill="#343434"/>
<rect x="1000" y="1400" width="100" height="100" fill="#F3CCA5"/>
<rect x="1000" y="400" width="100" height="100" fill="black"/>
<rect x="1000" y="1200" width="100" height="100" fill="black"/>
<rect x="1000" y="800" width="100" height="100" fill="black"/>
<rect x="600" y="100" width="100" height="100" fill="#704C0F"/>
<rect x="600" y="900" width="100" height="100" fill="#343434"/>
<rect x="600" y="500" width="100" height="100" fill="#343434"/>
<rect x="600" y="1300" width="100" height="100" fill="#343434"/>
<rect x="600" y="300" width="100" height="100" fill="#704C0F"/>
<rect x="600" y="1100" width="100" height="100" fill="#343434"/>
<rect x="600" y="700" width="100" height="100" fill="#343434"/>
<rect x="600" y="1500" width="100" height="100" fill="#F3CCA5"/>
<rect x="600" y="200" width="100" height="100" fill="#704C0F"/>
<rect x="600" y="1000" width="100" height="100" fill="#343434"/>
<rect x="600" y="600" width="100" height="100" fill="black"/>
<rect x="600" y="1400" width="100" height="100" fill="black"/>
<rect x="600" y="400" width="100" height="100" fill="black"/>
<rect x="600" y="1200" width="100" height="100" fill="#343434"/>
<rect x="600" y="800" width="100" height="100" fill="#343434"/>
<rect x="1400" y="100" width="100" height="100" fill="#F3CCA5"/>
<rect x="1400" y="900" width="100" height="100" fill="black"/>
<rect x="1400" y="500" width="100" height="100" fill="#F3CCA5"/>
<rect x="1400" y="1300" width="100" height="100" fill="#F3CCA5"/>
<rect x="1400" y="300" width="100" height="100" fill="#F3CCA5"/>
<rect x="1400" y="1100" width="100" height="100" fill="black"/>
<rect x="1400" y="700" width="100" height="100" fill="#F3CCA5"/>
<rect x="1400" y="1500" width="100" height="100" fill="#F3CCA5"/>
<rect x="1400" y="200" width="100" height="100" fill="#F3CCA5"/>
<rect x="1400" y="1000" width="100" height="100" fill="black"/>
<rect x="1400" y="600" width="100" height="100" fill="#F3CCA5"/>
<rect x="1400" y="1400" width="100" height="100" fill="#F3CCA5"/>
<rect x="1400" y="400" width="100" height="100" fill="#F3CCA5"/>
<rect x="1400" y="1200" width="100" height="100" fill="#F3CCA5"/>
<rect x="1400" y="800" width="100" height="100" fill="#F3CCA5"/>
<rect x="400" y="100" width="100" height="100" fill="#F3CCA5"/>
<rect x="400" y="900" width="100" height="100" fill="black"/>
<rect x="400" y="500" width="100" height="100" fill="black"/>
<rect x="400" y="1300" width="100" height="100" fill="#F3CCA5"/>
<rect x="400" y="300" width="100" height="100" fill="#704C0F"/>
<rect x="400" y="1100" width="100" height="100" fill="#F3CCA5"/>
<rect x="400" y="700" width="100" height="100" fill="black"/>
<rect x="400" y="1500" width="100" height="100" fill="#F3CCA5"/>
<rect x="400" y="200" width="100" height="100" fill="#F3CCA5"/>
<rect x="400" y="1000" width="100" height="100" fill="black"/>
<rect x="400" y="600" width="100" height="100" fill="black"/>
<rect x="400" y="1400" width="100" height="100" fill="#F3CCA5"/>
<rect x="400" y="400" width="100" height="100" fill="black"/>
<rect x="400" y="1200" width="100" height="100" fill="#F3CCA5"/>
<rect x="400" y="800" width="100" height="100" fill="#F3CCA5"/>
<rect x="1200" y="100" width="100" height="100" fill="#F3CCA5"/>
<rect x="1200" y="900" width="100" height="100" fill="#F3CCA5"/>
<rect x="1200" y="500" width="100" height="100" fill="#F3CCA5"/>
<rect x="1200" y="1300" width="100" height="100" fill="black"/>
<rect x="1200" y="300" width="100" height="100" fill="#F3CCA5"/>
<rect x="1200" y="1100" width="100" height="100" fill="#F3CCA5"/>
<rect x="1200" y="700" width="100" height="100" fill="#F3CCA5"/>
<rect x="1200" y="1500" width="100" height="100" fill="#F3CCA5"/>
<rect x="1200" y="200" width="100" height="100" fill="#F3CCA5"/>
<rect x="1200" y="1000" width="100" height="100" fill="#F3CCA5"/>
<rect x="1200" y="600" width="100" height="100" fill="#F3CCA5"/>
<rect x="1200" y="1400" width="100" height="100" fill="#F3CCA5"/>
<rect x="1200" y="400" width="100" height="100" fill="#F3CCA5"/>
<rect x="1200" y="1200" width="100" height="100" fill="#F3CCA5"/>
<rect x="1200" y="800" width="100" height="100" fill="#F3CCA5"/>
<rect x="800" y="100" width="100" height="100" fill="#704C0F"/>
<rect x="800" y="900" width="100" height="100" fill="#343434"/>
<rect x="800" y="500" width="100" height="100" fill="#343434"/>
<rect x="800" y="1300" width="100" height="100" fill="black"/>
<rect x="800" y="300" width="100" height="100" fill="#704C0F"/>
<rect x="800" y="1100" width="100" height="100" fill="#343434"/>
<rect x="800" y="700" width="100" height="100" fill="#343434"/>
<rect x="800" y="1500" width="100" height="100" fill="#F3CCA5"/>
<rect x="800" y="200" width="100" height="100" fill="#704C0F"/>
<rect x="800" y="1000" width="100" height="100" fill="#343434"/>
<rect x="800" y="600" width="100" height="100" fill="#343434"/>
<rect x="800" y="1400" width="100" height="100" fill="#F3CCA5"/>
<rect x="800" y="400" width="100" height="100" fill="black"/>
<rect x="800" y="1200" width="100" height="100" fill="#343434"/>
<rect x="800" y="800" width="100" height="100" fill="#343434"/>
<rect x="100" width="100" height="100" fill="#F3CCA5"/>
<rect x="900" width="100" height="100" fill="#F3CCA5"/>
<rect x="500" width="100" height="100" fill="#F3CCA5"/>
<rect x="1300" width="100" height="100" fill="#F3CCA5"/>
<rect x="300" width="100" height="100" fill="#F3CCA5"/>
<rect x="1100" width="100" height="100" fill="#F3CCA5"/>
<rect x="700" width="100" height="100" fill="#F3CCA5"/>
<rect x="1500" width="100" height="100" fill="#F3CCA5"/>
<rect x="200" width="100" height="100" fill="#F3CCA5"/>
<rect x="1000" width="100" height="100" fill="#F3CCA5"/>
<rect x="600" width="100" height="100" fill="#F3CCA5"/>
<rect x="1400" width="100" height="100" fill="#F3CCA5"/>
<rect x="400" width="100" height="100" fill="#F3CCA5"/>
<rect x="1200" width="100" height="100" fill="#F3CCA5"/>
<rect x="800" width="100" height="100" fill="#F3CCA5"/>
<rect y="100" width="100" height="100" fill="#F3CCA5"/>
<rect y="900" width="100" height="100" fill="#F3CCA5"/>
<rect y="500" width="100" height="100" fill="#F3CCA5"/>
<rect y="1300" width="100" height="100" fill="#F3CCA5"/>
<rect y="300" width="100" height="100" fill="#F3CCA5"/>
<rect y="1100" width="100" height="100" fill="#F3CCA5"/>
<rect y="700" width="100" height="100" fill="#F3CCA5"/>
<rect y="1500" width="100" height="100" fill="#F3CCA5"/>
<rect y="200" width="100" height="100" fill="#F3CCA5"/>
<rect y="1000" width="100" height="100" fill="#F3CCA5"/>
<rect y="600" width="100" height="100" fill="#F3CCA5"/>
<rect y="1400" width="100" height="100" fill="#F3CCA5"/>
<rect y="400" width="100" height="100" fill="#F3CCA5"/>
<rect y="1200" width="100" height="100" fill="#F3CCA5"/>
<rect y="800" width="100" height="100" fill="#F3CCA5"/>
<rect width="100" height="100" fill="#F3CCA5"/>
</g>
<defs>
<clipPath id="clip0_20_2">
<rect width="1600" height="1600" fill="white"/>
</clipPath>
<clipPath id="clip1_20_2">
<rect width="100" height="100" fill="white" transform="translate(100 100)"/>
</clipPath>
<clipPath id="clip2_20_2">
<rect width="100" height="100" fill="white" transform="translate(100 900)"/>
</clipPath>
<clipPath id="clip3_20_2">
<rect width="100" height="100" fill="white" transform="translate(100 500)"/>
</clipPath>
<clipPath id="clip4_20_2">
<rect width="100" height="100" fill="white" transform="translate(100 1300)"/>
</clipPath>
<clipPath id="clip5_20_2">
<rect width="100" height="100" fill="white" transform="translate(100 300)"/>
</clipPath>
<clipPath id="clip6_20_2">
<rect width="100" height="100" fill="white" transform="translate(100 1100)"/>
</clipPath>
<clipPath id="clip7_20_2">
<rect width="100" height="100" fill="white" transform="translate(100 700)"/>
</clipPath>
<clipPath id="clip8_20_2">
<rect width="100" height="100" fill="white" transform="translate(100 1500)"/>
</clipPath>
<clipPath id="clip9_20_2">
<rect width="100" height="100" fill="white" transform="translate(100 200)"/>
</clipPath>
<clipPath id="clip10_20_2">
<rect width="100" height="100" fill="white" transform="translate(100 1000)"/>
</clipPath>
<clipPath id="clip11_20_2">
<rect width="100" height="100" fill="white" transform="translate(100 600)"/>
</clipPath>
<clipPath id="clip12_20_2">
<rect width="100" height="100" fill="white" transform="translate(100 1400)"/>
</clipPath>
<clipPath id="clip13_20_2">
<rect width="100" height="100" fill="white" transform="translate(100 400)"/>
</clipPath>
<clipPath id="clip14_20_2">
<rect width="100" height="100" fill="white" transform="translate(100 1200)"/>
</clipPath>
<clipPath id="clip15_20_2">
<rect width="100" height="100" fill="white" transform="translate(100 800)"/>
</clipPath>
<clipPath id="clip16_20_2">
<rect width="100" height="100" fill="white" transform="translate(900 100)"/>
</clipPath>
<clipPath id="clip17_20_2">
<rect width="100" height="100" fill="white" transform="translate(900 900)"/>
</clipPath>
<clipPath id="clip18_20_2">
<rect width="100" height="100" fill="white" transform="translate(900 500)"/>
</clipPath>
<clipPath id="clip19_20_2">
<rect width="100" height="100" fill="white" transform="translate(900 1300)"/>
</clipPath>
<clipPath id="clip20_20_2">
<rect width="100" height="100" fill="white" transform="translate(900 300)"/>
</clipPath>
<clipPath id="clip21_20_2">
<rect width="100" height="100" fill="white" transform="translate(900 1100)"/>
</clipPath>
<clipPath id="clip22_20_2">
<rect width="100" height="100" fill="white" transform="translate(900 700)"/>
</clipPath>
<clipPath id="clip23_20_2">
<rect width="100" height="100" fill="white" transform="translate(900 1500)"/>
</clipPath>
<clipPath id="clip24_20_2">
<rect width="100" height="100" fill="white" transform="translate(900 200)"/>
</clipPath>
<clipPath id="clip25_20_2">
<rect width="100" height="100" fill="white" transform="translate(900 1000)"/>
</clipPath>
<clipPath id="clip26_20_2">
<rect width="100" height="100" fill="white" transform="translate(900 600)"/>
</clipPath>
<clipPath id="clip27_20_2">
<rect width="100" height="100" fill="white" transform="translate(900 1400)"/>
</clipPath>
<clipPath id="clip28_20_2">
<rect width="100" height="100" fill="white" transform="translate(900 400)"/>
</clipPath>
<clipPath id="clip29_20_2">
<rect width="100" height="100" fill="white" transform="translate(900 1200)"/>
</clipPath>
<clipPath id="clip30_20_2">
<rect width="100" height="100" fill="white" transform="translate(900 800)"/>
</clipPath>
<clipPath id="clip31_20_2">
<rect width="100" height="100" fill="white" transform="translate(500 100)"/>
</clipPath>
<clipPath id="clip32_20_2">
<rect width="100" height="100" fill="white" transform="translate(500 900)"/>
</clipPath>
<clipPath id="clip33_20_2">
<rect width="100" height="100" fill="white" transform="translate(500 500)"/>
</clipPath>
<clipPath id="clip34_20_2">
<rect width="100" height="100" fill="white" transform="translate(500 1300)"/>
</clipPath>
<clipPath id="clip35_20_2">
<rect width="100" height="100" fill="white" transform="translate(500 300)"/>
</clipPath>
<clipPath id="clip36_20_2">
<rect width="100" height="100" fill="white" transform="translate(500 1100)"/>
</clipPath>
<clipPath id="clip37_20_2">
<rect width="100" height="100" fill="white" transform="translate(500 700)"/>
</clipPath>
<clipPath id="clip38_20_2">
<rect width="100" height="100" fill="white" transform="translate(500 1500)"/>
</clipPath>
<clipPath id="clip39_20_2">
<rect width="100" height="100" fill="white" transform="translate(500 200)"/>
</clipPath>
<clipPath id="clip40_20_2">
<rect width="100" height="100" fill="white" transform="translate(500 1000)"/>
</clipPath>
<clipPath id="clip41_20_2">
<rect width="100" height="100" fill="white" transform="translate(500 600)"/>
</clipPath>
<clipPath id="clip42_20_2">
<rect width="100" height="100" fill="white" transform="translate(500 1400)"/>
</clipPath>
<clipPath id="clip43_20_2">
<rect width="100" height="100" fill="white" transform="translate(500 400)"/>
</clipPath>
<clipPath id="clip44_20_2">
<rect width="100" height="100" fill="white" transform="translate(500 1200)"/>
</clipPath>
<clipPath id="clip45_20_2">
<rect width="100" height="100" fill="white" transform="translate(500 800)"/>
</clipPath>
<clipPath id="clip46_20_2">
<rect width="100" height="100" fill="white" transform="translate(1300 100)"/>
</clipPath>
<clipPath id="clip47_20_2">
<rect width="100" height="100" fill="white" transform="translate(1300 900)"/>
</clipPath>
<clipPath id="clip48_20_2">
<rect width="100" height="100" fill="white" transform="translate(1300 500)"/>
</clipPath>
<clipPath id="clip49_20_2">
<rect width="100" height="100" fill="white" transform="translate(1300 1300)"/>
</clipPath>
<clipPath id="clip50_20_2">
<rect width="100" height="100" fill="white" transform="translate(1300 300)"/>
</clipPath>
<clipPath id="clip51_20_2">
<rect width="100" height="100" fill="white" transform="translate(1300 1100)"/>
</clipPath>
<clipPath id="clip52_20_2">
<rect width="100" height="100" fill="white" transform="translate(1300 700)"/>
</clipPath>
<clipPath id="clip53_20_2">
<rect width="100" height="100" fill="white" transform="translate(1300 1500)"/>
</clipPath>
<clipPath id="clip54_20_2">
<rect width="100" height="100" fill="white" transform="translate(1300 200)"/>
</clipPath>
<clipPath id="clip55_20_2">
<rect width="100" height="100" fill="white" transform="translate(1300 1000)"/>
</clipPath>
<clipPath id="clip56_20_2">
<rect width="100" height="100" fill="white" transform="translate(1300 600)"/>
</clipPath>
<clipPath id="clip57_20_2">
<rect width="100" height="100" fill="white" transform="translate(1300 1400)"/>
</clipPath>
<clipPath id="clip58_20_2">
<rect width="100" height="100" fill="white" transform="translate(1300 400)"/>
</clipPath>
<clipPath id="clip59_20_2">
<rect width="100" height="100" fill="white" transform="translate(1300 1200)"/>
</clipPath>
<clipPath id="clip60_20_2">
<rect width="100" height="100" fill="white" transform="translate(1300 800)"/>
</clipPath>
<clipPath id="clip61_20_2">
<rect width="100" height="100" fill="white" transform="translate(300 100)"/>
</clipPath>
<clipPath id="clip62_20_2">
<rect width="100" height="100" fill="white" transform="translate(300 900)"/>
</clipPath>
<clipPath id="clip63_20_2">
<rect width="100" height="100" fill="white" transform="translate(300 500)"/>
</clipPath>
<clipPath id="clip64_20_2">
<rect width="100" height="100" fill="white" transform="translate(300 1300)"/>
</clipPath>
<clipPath id="clip65_20_2">
<rect width="100" height="100" fill="white" transform="translate(300 300)"/>
</clipPath>
<clipPath id="clip66_20_2">
<rect width="100" height="100" fill="white" transform="translate(300 1100)"/>
</clipPath>
<clipPath id="clip67_20_2">
<rect width="100" height="100" fill="white" transform="translate(300 700)"/>
</clipPath>
<clipPath id="clip68_20_2">
<rect width="100" height="100" fill="white" transform="translate(300 1500)"/>
</clipPath>
<clipPath id="clip69_20_2">
<rect width="100" height="100" fill="white" transform="translate(300 200)"/>
</clipPath>
<clipPath id="clip70_20_2">
<rect width="100" height="100" fill="white" transform="translate(300 1000)"/>
</clipPath>
<clipPath id="clip71_20_2">
<rect width="100" height="100" fill="white" transform="translate(300 600)"/>
</clipPath>
<clipPath id="clip72_20_2">
<rect width="100" height="100" fill="white" transform="translate(300 1400)"/>
</clipPath>
<clipPath id="clip73_20_2">
<rect width="100" height="100" fill="white" transform="translate(300 400)"/>
</clipPath>
<clipPath id="clip74_20_2">
<rect width="100" height="100" fill="white" transform="translate(300 1200)"/>
</clipPath>
<clipPath id="clip75_20_2">
<rect width="100" height="100" fill="white" transform="translate(300 800)"/>
</clipPath>
<clipPath id="clip76_20_2">
<rect width="100" height="100" fill="white" transform="translate(1100 100)"/>
</clipPath>
<clipPath id="clip77_20_2">
<rect width="100" height="100" fill="white" transform="translate(1100 900)"/>
</clipPath>
<clipPath id="clip78_20_2">
<rect width="100" height="100" fill="white" transform="translate(1100 500)"/>
</clipPath>
<clipPath id="clip79_20_2">
<rect width="100" height="100" fill="white" transform="translate(1100 1300)"/>
</clipPath>
<clipPath id="clip80_20_2">
<rect width="100" height="100" fill="white" transform="translate(1100 300)"/>
</clipPath>
<clipPath id="clip81_20_2">
<rect width="100" height="100" fill="white" transform="translate(1100 1100)"/>
</clipPath>
<clipPath id="clip82_20_2">
<rect width="100" height="100" fill="white" transform="translate(1100 700)"/>
</clipPath>
<clipPath id="clip83_20_2">
<rect width="100" height="100" fill="white" transform="translate(1100 1500)"/>
</clipPath>
<clipPath id="clip84_20_2">
<rect width="100" height="100" fill="white" transform="translate(1100 200)"/>
</clipPath>
<clipPath id="clip85_20_2">
<rect width="100" height="100" fill="white" transform="translate(1100 1000)"/>
</clipPath>
<clipPath id="clip86_20_2">
<rect width="100" height="100" fill="white" transform="translate(1100 600)"/>
</clipPath>
<clipPath id="clip87_20_2">
<rect width="100" height="100" fill="white" transform="translate(1100 1400)"/>
</clipPath>
<clipPath id="clip88_20_2">
<rect width="100" height="100" fill="white" transform="translate(1100 400)"/>
</clipPath>
<clipPath id="clip89_20_2">
<rect width="100" height="100" fill="white" transform="translate(1100 1200)"/>
</clipPath>
<clipPath id="clip90_20_2">
<rect width="100" height="100" fill="white" transform="translate(1100 800)"/>
</clipPath>
<clipPath id="clip91_20_2">
<rect width="100" height="100" fill="white" transform="translate(700 100)"/>
</clipPath>
<clipPath id="clip92_20_2">
<rect width="100" height="100" fill="white" transform="translate(700 900)"/>
</clipPath>
<clipPath id="clip93_20_2">
<rect width="100" height="100" fill="white" transform="translate(700 500)"/>
</clipPath>
<clipPath id="clip94_20_2">
<rect width="100" height="100" fill="white" transform="translate(700 1300)"/>
</clipPath>
<clipPath id="clip95_20_2">
<rect width="100" height="100" fill="white" transform="translate(700 300)"/>
</clipPath>
<clipPath id="clip96_20_2">
<rect width="100" height="100" fill="white" transform="translate(700 1100)"/>
</clipPath>
<clipPath id="clip97_20_2">
<rect width="100" height="100" fill="white" transform="translate(700 700)"/>
</clipPath>
<clipPath id="clip98_20_2">
<rect width="100" height="100" fill="white" transform="translate(700 1500)"/>
</clipPath>
<clipPath id="clip99_20_2">
<rect width="100" height="100" fill="white" transform="translate(700 200)"/>
</clipPath>
<clipPath id="clip100_20_2">
<rect width="100" height="100" fill="white" transform="translate(700 1000)"/>
</clipPath>
<clipPath id="clip101_20_2">
<rect width="100" height="100" fill="white" transform="translate(700 600)"/>
</clipPath>
<clipPath id="clip102_20_2">
<rect width="100" height="100" fill="white" transform="translate(700 1400)"/>
</clipPath>
<clipPath id="clip103_20_2">
<rect width="100" height="100" fill="white" transform="translate(700 400)"/>
</clipPath>
<clipPath id="clip104_20_2">
<rect width="100" height="100" fill="white" transform="translate(700 1200)"/>
</clipPath>
<clipPath id="clip105_20_2">
<rect width="100" height="100" fill="white" transform="translate(700 800)"/>
</clipPath>
<clipPath id="clip106_20_2">
<rect width="100" height="100" fill="white" transform="translate(1500 100)"/>
</clipPath>
<clipPath id="clip107_20_2">
<rect width="100" height="100" fill="white" transform="translate(1500 900)"/>
</clipPath>
<clipPath id="clip108_20_2">
<rect width="100" height="100" fill="white" transform="translate(1500 500)"/>
</clipPath>
<clipPath id="clip109_20_2">
<rect width="100" height="100" fill="white" transform="translate(1500 1300)"/>
</clipPath>
<clipPath id="clip110_20_2">
<rect width="100" height="100" fill="white" transform="translate(1500 300)"/>
</clipPath>
<clipPath id="clip111_20_2">
<rect width="100" height="100" fill="white" transform="translate(1500 1100)"/>
</clipPath>
<clipPath id="clip112_20_2">
<rect width="100" height="100" fill="white" transform="translate(1500 700)"/>
</clipPath>
<clipPath id="clip113_20_2">
<rect width="100" height="100" fill="white" transform="translate(1500 1500)"/>
</clipPath>
<clipPath id="clip114_20_2">
<rect width="100" height="100" fill="white" transform="translate(1500 200)"/>
</clipPath>
<clipPath id="clip115_20_2">
<rect width="100" height="100" fill="white" transform="translate(1500 1000)"/>
</clipPath>
<clipPath id="clip116_20_2">
<rect width="100" height="100" fill="white" transform="translate(1500 600)"/>
</clipPath>
<clipPath id="clip117_20_2">
<rect width="100" height="100" fill="white" transform="translate(1500 1400)"/>
</clipPath>
<clipPath id="clip118_20_2">
<rect width="100" height="100" fill="white" transform="translate(1500 400)"/>
</clipPath>
<clipPath id="clip119_20_2">
<rect width="100" height="100" fill="white" transform="translate(1500 1200)"/>
</clipPath>
<clipPath id="clip120_20_2">
<rect width="100" height="100" fill="white" transform="translate(1500 800)"/>
</clipPath>
</defs>
</svg>
